# xmcd
#
# Track frame offsets:
#	150
#	21741
#	40042
#	56596
#	72981
#	92916
#	112136
#	132704
#	150888
#	170320
#	190859
#	212111
#
# Disc length: 3085 seconds
#
# Revision: 0
# Processed by: cddbd v1.5.2PL0 Copyright (c) Steve Scherf et al.
# Submitted via: audiograbber 1.83.01
#
DISCID=ad0c0b0c
DTITLE=Rosenstolz - Die Suche Geht Weiter 
DYEAR=1900
DGENRE=
TTITLE0=Ich Bin Mein Haus
TTITLE1=Gib Mir Sonne
TTITLE2=Blaue Flecken
TTITLE3=Irgendwo Dazwischen
TTITLE4=Kein Lied Von Liebe
TTITLE5=Wie Weit Ist Vorbei
TTITLE6=An Einem Morgen im April
TTITLE7=Unerwartet (Ein Fenster Zum Himmel)
TTITLE8=Bist Du Dabei
TTITLE9=Herz Schlägt Auch Im Eis
TTITLE10=Wann Kommst Du (Autos Fahr´n An Mir Vorbei)
TTITLE11=Die Suche Geht Weiter
EXTD=
EXTT0=
EXTT1=
EXTT2=
EXTT3=
EXTT4=
EXTT5=
EXTT6=
EXTT7=
EXTT8=
EXTT9=
EXTT10=
EXTT11=
PLAYORDER=
